<svg width="66" height="45" viewBox="0 0 66 45" fill="none" xmlns="http://www.w3.org/2000/svg">
<g clip-path="url(#clip0_2_176)">
<path d="M0.000353518 41.0143V3.98555C0.000353518 3.94258 0.0639144 3.53537 0.191036 2.76392L21.7674 21.4076L0.252547 42.3004C0.11675 41.8836 0.0312975 41.4518 -0.00195312 41.0143H0.000353518ZM2.86674 0.192515C3.20912 0.0560013 3.57521 -0.00950084 3.94318 -8.86934e-05H62.0545C62.4441 0.00112692 62.831 0.0661726 63.2001 0.192515L41.5607 18.8968L38.6966 21.2142L33.0323 25.9074L27.3679 21.2142L24.5038 18.8968L2.86674 0.192515ZM2.92825 44.8073L24.6307 23.7895L33.0315 30.6681L41.4331 23.7895L63.1363 44.8073C62.7901 44.937 62.4236 45.0022 62.0545 44.9999H3.94318C3.59511 44.9983 3.25022 44.9331 2.92518 44.8073H2.92825ZM44.2941 21.4068L65.8097 2.76392C65.9382 3.15804 66.0026 3.57061 66.0004 3.98555V41.0143C65.9933 41.4496 65.9292 41.8821 65.8097 42.3004L44.2941 21.4068Z" fill="black"/>
</g>
<defs>
<clipPath id="clip0_2_176">
<rect width="66" height="45" fill="white"/>
</clipPath>
</defs>
</svg>
