<svg width="56" height="56" viewBox="0 0 56 56" fill="none" xmlns="http://www.w3.org/2000/svg">
<g clip-path="url(#clip0_2_174)">
<path d="M52.0004 0H3.98728C2.9238 0.0087848 1.90712 0.438581 1.15983 1.1953C0.41253 1.95201 -0.00449916 2.97399 3.66158e-05 4.0375V51.9625C-0.00449916 53.026 0.41253 54.048 1.15983 54.8047C1.90712 55.5614 2.9238 55.9912 3.98728 56H52.0012C53.0663 55.9926 54.0852 55.5637 54.8349 54.8071C55.5846 54.0504 56.0041 53.0277 56.0016 51.9625V4.0375C56.0041 2.97221 55.5845 1.94932 54.8346 1.19265C54.0847 0.435983 53.0657 0.00715356 52.0004 0ZM16.9247 48H8.62476V21.2753H16.9379V48H16.9247ZM12.7751 17.6252C11.8234 17.6252 10.893 17.343 10.1016 16.8142C9.31025 16.2854 8.69346 15.5339 8.32923 14.6545C7.96501 13.7752 7.86971 12.8077 8.05539 11.8742C8.24107 10.9407 8.69939 10.0832 9.37239 9.41024C10.0454 8.73724 10.9028 8.27892 11.8363 8.09324C12.7698 7.90756 13.7374 8.00286 14.6167 8.36708C15.496 8.73131 16.2476 9.3481 16.7764 10.1395C17.3051 10.9308 17.5874 11.8612 17.5874 12.813C17.5867 14.0891 17.0795 15.3127 16.1772 16.2151C15.2749 17.1174 14.0512 17.6246 12.7751 17.6252ZM48.0379 48H39.741V34.9999C39.741 31.9003 39.6784 27.9122 35.4283 27.9122C31.1032 27.9122 30.4405 31.2871 30.4405 34.7749V47.9961H22.1375V21.2753H30.1011V24.9255H30.214C31.0128 23.5639 32.1654 22.4439 33.5494 21.6846C34.9335 20.9253 36.4973 20.5549 38.0748 20.6127C46.4746 20.6127 48.0372 26.1502 48.0372 33.35L48.0379 48Z" fill="black"/>
</g>
<defs>
<clipPath id="clip0_2_174">
<rect width="56" height="56" fill="white"/>
</clipPath>
</defs>
</svg>
